<svg width="1000" height="1000" viewBox="0 0 1000 1000" fill="none" xmlns="http://www.w3.org/2000/svg">
<rect width="1000" height="1000" fill="#123A28"/>
<path d="M722.579 387.842C660.546 325.794 598.493 263.726 536.459 201.678L510.105 175.317C505.693 170.904 498.18 170.885 493.749 175.317C461.576 207.497 429.384 239.697 397.211 271.877C358.739 310.359 320.247 348.859 281.775 387.341C274.377 394.741 275.591 402.738 275.591 412.488V478.641C275.591 546.085 275.591 613.529 275.591 680.972C275.591 725.312 274.262 769.863 275.591 814.184C275.61 814.935 275.591 815.687 275.591 816.438C275.591 822.682 280.889 828 287.15 828H714.411C729.283 828 729.303 804.876 714.411 804.876H287.15L298.709 816.438V398.325L295.318 406.495C358.103 343.714 420.869 280.934 483.634 218.153C492.458 209.328 501.281 200.502 510.124 191.657H493.768C555.801 253.706 617.854 315.773 679.888 377.822L706.242 404.183C716.78 414.723 733.136 398.363 722.598 387.823L722.579 387.842Z" fill="#E7D4BB"/>
</svg>
